<svg width="32" height="32" viewBox="0 0 32 32" fill="none" xmlns="http://www.w3.org/2000/svg">
<path d="M11.549 15.3837C11.2519 15.5643 11.0333 15.8585 10.9414 16.2018C10.8495 16.545 10.892 16.9091 11.0591 17.2139L12.32 19.5127C12.4871 19.8177 12.7655 20.0383 13.0939 20.1261C13.4222 20.214 13.7736 20.1619 14.0707 19.9814C14.3678 19.8008 14.5863 19.5066 14.6782 19.1633C14.7701 18.8201 14.7278 18.456 14.5605 18.1512L13.2997 15.8522C13.1325 15.5474 12.8541 15.3268 12.5258 15.239C12.1974 15.1511 11.846 15.2031 11.549 15.3837ZM25.6229 8.36307C25.92 8.18247 26.1385 7.88823 26.2304 7.54491C26.3222 7.20171 26.2799 6.83762 26.1128 6.53281L23.591 1.93512C23.4239 1.63027 23.1455 1.40965 22.8171 1.32177C22.4888 1.2339 22.1374 1.28598 21.8403 1.46655L1.67511 13.7217C1.37797 13.9023 1.15937 14.1965 1.06749 14.5397C0.975749 14.8831 1.01804 15.2471 1.18517 15.552L3.70698 20.1496C3.87411 20.4545 4.15249 20.6751 4.48084 20.763C4.80918 20.8508 5.16056 20.7987 5.4577 20.6182C5.75483 20.4376 6.10621 20.3855 6.43443 20.4734C6.76277 20.5612 7.04116 20.782 7.20841 21.0868C7.37555 21.3916 7.41796 21.7557 7.32608 22.0989C7.23421 22.4422 7.01561 22.7364 6.71847 22.917C6.42147 23.0976 6.20286 23.3919 6.11099 23.7351C6.01912 24.0784 6.06153 24.4425 6.22866 24.7473L8.75047 29.3449C8.9176 29.6497 9.19599 29.8703 9.52433 29.9583C9.85268 30.0461 10.2041 29.994 10.5012 29.8134L30.6664 17.5583C30.9635 17.3778 31.182 17.0834 31.2738 16.7402C31.3657 16.397 31.3234 16.033 31.1562 15.728L28.6345 11.1304C28.4672 10.8256 28.1888 10.605 27.8606 10.517C27.5323 10.4292 27.1809 10.4813 26.8838 10.6619C26.5866 10.8425 26.2353 10.8944 25.9069 10.8066C25.5786 10.7188 25.3002 10.4981 25.1331 10.1933C24.9658 9.88839 24.9235 9.5243 25.0154 9.1811C25.1073 8.8379 25.3257 8.54354 25.6229 8.36307ZM23.3551 6.9519C22.8389 7.58782 22.52 8.36923 22.442 9.18991C22.3639 10.0106 22.5304 10.8308 22.9188 11.5389C23.3072 12.2471 23.8987 12.809 24.613 13.1482C25.3272 13.4872 26.1295 13.5873 26.9108 13.4346L28.2853 15.9403L17.0823 22.7488C16.9151 22.444 16.6367 22.2233 16.3084 22.1354C15.98 22.0475 15.6288 22.0996 15.3316 22.2802C15.0345 22.4608 14.8159 22.7551 14.724 23.0983C14.6321 23.4415 14.6745 23.8055 14.8417 24.1105L10.3606 26.8338L8.98619 24.3281C9.50256 23.6921 9.82134 22.9107 9.89949 22.0901C9.97752 21.2694 9.81102 20.4492 9.42264 19.741C9.03414 19.0329 8.44264 18.4711 7.72843 18.1319C7.01423 17.7927 6.21192 17.6927 5.43051 17.8453L4.05621 15.3396L8.5374 12.6163C8.70453 12.9212 8.98292 13.1418 9.31127 13.2296C9.63961 13.3176 9.99099 13.2655 10.2881 13.0849C10.5853 12.9043 10.8037 12.61 10.8956 12.2669C10.9875 11.9235 10.9452 11.5594 10.7779 11.2546L21.9809 4.44621L23.3551 6.9519Z" fill="#F23535"/>
</svg>
